<mxfile host="app.diagrams.net" agent="Mozilla/5.0 (Windows NT 10.0; Win64; x64; rv:130.0) Gecko/20100101 Firefox/130.0" version="24.7.16">
  <diagram name="Page-1" id="9XxRKp81XTkAnHv0fnxt">
    <mxGraphModel dx="665" dy="745" grid="1" gridSize="10" guides="1" tooltips="1" connect="1" arrows="1" fold="1" page="1" pageScale="1" pageWidth="827" pageHeight="1169" math="0" shadow="0">
      <root>
        <mxCell id="0" />
        <mxCell id="1" parent="0" />
        <mxCell id="7I2hjKvpXO12ixehWDgP-8" value="&lt;div&gt;Tuteur&lt;/div&gt;" style="shape=umlActor;verticalLabelPosition=bottom;verticalAlign=top;html=1;outlineConnect=0;" vertex="1" parent="1">
          <mxGeometry x="110" y="380" width="30" height="60" as="geometry" />
        </mxCell>
        <mxCell id="7I2hjKvpXO12ixehWDgP-10" value="Envoyer un message" style="ellipse;whiteSpace=wrap;html=1;spacingTop=0;spacingLeft=4;spacingRight=4;" vertex="1" parent="1">
          <mxGeometry x="349" y="200" width="130" height="60" as="geometry" />
        </mxCell>
        <mxCell id="7I2hjKvpXO12ixehWDgP-11" value="Épingler un message" style="ellipse;whiteSpace=wrap;html=1;spacingTop=0;spacingLeft=4;spacingRight=4;" vertex="1" parent="1">
          <mxGeometry x="349" y="290" width="130" height="60" as="geometry" />
        </mxCell>
        <mxCell id="7I2hjKvpXO12ixehWDgP-12" value="Planifier un événement dans le calendrier" style="ellipse;whiteSpace=wrap;html=1;spacingTop=0;spacingLeft=4;spacingRight=4;" vertex="1" parent="1">
          <mxGeometry x="349" y="380" width="130" height="60" as="geometry" />
        </mxCell>
        <mxCell id="7I2hjKvpXO12ixehWDgP-13" value="Écrire et interagir avec une to do list" style="ellipse;whiteSpace=wrap;html=1;spacingTop=0;spacingLeft=4;spacingRight=4;" vertex="1" parent="1">
          <mxGeometry x="349" y="470" width="130" height="60" as="geometry" />
        </mxCell>
        <mxCell id="7I2hjKvpXO12ixehWDgP-31" style="edgeStyle=orthogonalEdgeStyle;rounded=0;orthogonalLoop=1;jettySize=auto;html=1;dashed=1;dashPattern=8 8;" edge="1" parent="1" source="7I2hjKvpXO12ixehWDgP-14" target="7I2hjKvpXO12ixehWDgP-13">
          <mxGeometry relative="1" as="geometry" />
        </mxCell>
        <mxCell id="7I2hjKvpXO12ixehWDgP-14" value="&lt;div&gt;Écrire une to do list pour l&#39;élève&lt;/div&gt;" style="ellipse;whiteSpace=wrap;html=1;spacingTop=0;spacingLeft=4;spacingRight=4;" vertex="1" parent="1">
          <mxGeometry x="349" y="560" width="130" height="60" as="geometry" />
        </mxCell>
        <mxCell id="7I2hjKvpXO12ixehWDgP-15" value="" style="endArrow=none;html=1;rounded=0;edgeStyle=entityRelationEdgeStyle;" edge="1" parent="1" source="7I2hjKvpXO12ixehWDgP-8" target="7I2hjKvpXO12ixehWDgP-10">
          <mxGeometry width="50" height="50" relative="1" as="geometry">
            <mxPoint x="310" y="570" as="sourcePoint" />
            <mxPoint x="360" y="520" as="targetPoint" />
          </mxGeometry>
        </mxCell>
        <mxCell id="7I2hjKvpXO12ixehWDgP-17" value="" style="endArrow=none;html=1;rounded=0;edgeStyle=entityRelationEdgeStyle;" edge="1" parent="1" source="7I2hjKvpXO12ixehWDgP-8" target="7I2hjKvpXO12ixehWDgP-12">
          <mxGeometry width="50" height="50" relative="1" as="geometry">
            <mxPoint x="130" y="460" as="sourcePoint" />
            <mxPoint x="398" y="275" as="targetPoint" />
          </mxGeometry>
        </mxCell>
        <mxCell id="7I2hjKvpXO12ixehWDgP-18" value="" style="endArrow=none;html=1;rounded=0;edgeStyle=entityRelationEdgeStyle;" edge="1" parent="1" source="7I2hjKvpXO12ixehWDgP-8" target="7I2hjKvpXO12ixehWDgP-13">
          <mxGeometry width="50" height="50" relative="1" as="geometry">
            <mxPoint x="120" y="458" as="sourcePoint" />
            <mxPoint x="361" y="428" as="targetPoint" />
          </mxGeometry>
        </mxCell>
        <mxCell id="7I2hjKvpXO12ixehWDgP-19" value="" style="endArrow=none;html=1;rounded=0;edgeStyle=entityRelationEdgeStyle;" edge="1" parent="1" source="7I2hjKvpXO12ixehWDgP-8" target="7I2hjKvpXO12ixehWDgP-14">
          <mxGeometry width="50" height="50" relative="1" as="geometry">
            <mxPoint x="130" y="468" as="sourcePoint" />
            <mxPoint x="371" y="438" as="targetPoint" />
          </mxGeometry>
        </mxCell>
        <mxCell id="7I2hjKvpXO12ixehWDgP-22" value="&lt;div&gt;Élève&lt;/div&gt;" style="shape=umlActor;verticalLabelPosition=bottom;verticalAlign=top;html=1;outlineConnect=0;" vertex="1" parent="1">
          <mxGeometry x="690" y="380" width="30" height="60" as="geometry" />
        </mxCell>
        <mxCell id="7I2hjKvpXO12ixehWDgP-24" value="" style="endArrow=none;html=1;rounded=0;edgeStyle=entityRelationEdgeStyle;" edge="1" parent="1" source="7I2hjKvpXO12ixehWDgP-22" target="7I2hjKvpXO12ixehWDgP-10">
          <mxGeometry width="50" height="50" relative="1" as="geometry">
            <mxPoint x="110" y="380" as="sourcePoint" />
            <mxPoint x="349" y="200" as="targetPoint" />
            <Array as="points">
              <mxPoint x="50" y="230" />
              <mxPoint x="170" y="280" />
              <mxPoint x="319" y="330" />
            </Array>
          </mxGeometry>
        </mxCell>
        <mxCell id="7I2hjKvpXO12ixehWDgP-25" value="" style="endArrow=none;html=1;rounded=0;edgeStyle=entityRelationEdgeStyle;" edge="1" parent="1" source="7I2hjKvpXO12ixehWDgP-22" target="7I2hjKvpXO12ixehWDgP-11">
          <mxGeometry width="50" height="50" relative="1" as="geometry">
            <mxPoint x="110" y="380" as="sourcePoint" />
            <mxPoint x="349" y="290" as="targetPoint" />
          </mxGeometry>
        </mxCell>
        <mxCell id="7I2hjKvpXO12ixehWDgP-26" value="" style="endArrow=none;html=1;rounded=0;edgeStyle=entityRelationEdgeStyle;" edge="1" parent="1" source="7I2hjKvpXO12ixehWDgP-22" target="7I2hjKvpXO12ixehWDgP-12">
          <mxGeometry width="50" height="50" relative="1" as="geometry">
            <mxPoint x="110" y="380" as="sourcePoint" />
            <mxPoint x="349" y="380" as="targetPoint" />
          </mxGeometry>
        </mxCell>
        <mxCell id="7I2hjKvpXO12ixehWDgP-27" value="" style="endArrow=none;html=1;rounded=0;edgeStyle=entityRelationEdgeStyle;" edge="1" parent="1" source="7I2hjKvpXO12ixehWDgP-22" target="7I2hjKvpXO12ixehWDgP-13">
          <mxGeometry width="50" height="50" relative="1" as="geometry">
            <mxPoint x="110" y="380" as="sourcePoint" />
            <mxPoint x="349" y="470" as="targetPoint" />
          </mxGeometry>
        </mxCell>
      </root>
    </mxGraphModel>
  </diagram>
</mxfile>
